<?xml version="1.0" encoding="UTF-8" standalone="no"?>
<!DOCTYPE svg PUBLIC "-//W3C//DTD SVG 1.1//EN"
 "http://www.w3.org/Graphics/SVG/1.1/DTD/svg11.dtd">
<!-- Generated by graphviz version 13.1.2 (20250808.2320)
 -->
<!-- Title: G Pages: 1 -->
<svg width="2992pt" height="1053pt"
 viewBox="0.00 0.00 2992.00 1053.00" xmlns="http://www.w3.org/2000/svg" xmlns:xlink="http://www.w3.org/1999/xlink">
<g id="graph0" class="graph" transform="scale(1 1) rotate(0) translate(21.6 1031.35)">
<title>G</title>
<polygon fill="#111111" stroke="none" points="-21.6,21.6 -21.6,-1031.35 2970.6,-1031.35 2970.6,21.6 -21.6,21.6"/>
<!-- App.jsx -->
<g id="node1" class="node">
<title>App.jsx</title>
<path fill="none" stroke="#c6c5fe" d="M362.71,-753.75C362.71,-753.75 318.29,-753.75 318.29,-753.75 314.33,-753.75 310.38,-749.79 310.38,-745.83 310.38,-745.83 310.38,-737.92 310.38,-737.92 310.38,-733.96 314.33,-730 318.29,-730 318.29,-730 362.71,-730 362.71,-730 366.67,-730 370.62,-733.96 370.62,-737.92 370.62,-737.92 370.62,-745.83 370.62,-745.83 370.62,-749.79 366.67,-753.75 362.71,-753.75"/>
<text xml:space="preserve" text-anchor="middle" x="340.5" y="-736.45" font-family="Arial" font-size="14.00" fill="#c6c5fe">App.jsx</text>
</g>
<!-- components/navigation/PrivateRoute.jsx -->
<g id="node2" class="node">
<title>components/navigation/PrivateRoute.jsx</title>
<path fill="none" stroke="#c6c5fe" d="M884.08,-918.75C884.08,-918.75 642.42,-918.75 642.42,-918.75 638.46,-918.75 634.5,-914.79 634.5,-910.83 634.5,-910.83 634.5,-902.92 634.5,-902.92 634.5,-898.96 638.46,-895 642.42,-895 642.42,-895 884.08,-895 884.08,-895 888.04,-895 892,-898.96 892,-902.92 892,-902.92 892,-910.83 892,-910.83 892,-914.79 888.04,-918.75 884.08,-918.75"/>
<text xml:space="preserve" text-anchor="middle" x="763.25" y="-901.45" font-family="Arial" font-size="14.00" fill="#c6c5fe">components/navigation/PrivateRoute.jsx</text>
</g>
<!-- App.jsx&#45;&gt;components/navigation/PrivateRoute.jsx -->
<g id="edge1" class="edge">
<title>App.jsx&#45;&gt;components/navigation/PrivateRoute.jsx</title>
<path fill="none" stroke="#757575" d="M349.89,-754.22C364.2,-774.27 395.35,-813.7 431.75,-833.88 489.93,-866.13 561.28,-884.13 622.78,-894.18"/>
<polygon fill="#757575" stroke="#757575" points="622.23,-897.64 632.65,-895.73 623.31,-890.72 622.23,-897.64"/>
</g>
<!-- pages/AuthPage.jsx -->
<g id="node3" class="node">
<title>pages/AuthPage.jsx</title>
<path fill="none" stroke="#c6c5fe" d="M575.21,-824.75C575.21,-824.75 455.04,-824.75 455.04,-824.75 451.08,-824.75 447.12,-820.79 447.12,-816.83 447.12,-816.83 447.12,-808.92 447.12,-808.92 447.12,-804.96 451.08,-801 455.04,-801 455.04,-801 575.21,-801 575.21,-801 579.17,-801 583.12,-804.96 583.12,-808.92 583.12,-808.92 583.12,-816.83 583.12,-816.83 583.12,-820.79 579.17,-824.75 575.21,-824.75"/>
<text xml:space="preserve" text-anchor="middle" x="515.12" y="-807.45" font-family="Arial" font-size="14.00" fill="#c6c5fe">pages/AuthPage.jsx</text>
</g>
<!-- App.jsx&#45;&gt;pages/AuthPage.jsx -->
<g id="edge2" class="edge">
<title>App.jsx&#45;&gt;pages/AuthPage.jsx</title>
<path fill="none" stroke="#757575" d="M366.11,-754.12C384.1,-762.87 409.18,-774.68 431.75,-783.88 442.82,-788.39 454.87,-792.87 466.27,-796.91"/>
<polygon fill="#757575" stroke="#757575" points="464.91,-800.14 475.5,-800.14 467.22,-793.53 464.91,-800.14"/>
</g>
<!-- pages/EditUserProfile.jsx -->
<g id="node4" class="node">
<title>pages/EditUserProfile.jsx</title>
<path fill="none" stroke="#cfffac" d="M590.58,-774.75C590.58,-774.75 439.67,-774.75 439.67,-774.75 435.71,-774.75 431.75,-770.79 431.75,-766.83 431.75,-766.83 431.75,-758.92 431.75,-758.92 431.75,-754.96 435.71,-751 439.67,-751 439.67,-751 590.58,-751 590.58,-751 594.54,-751 598.5,-754.96 598.5,-758.92 598.5,-758.92 598.5,-766.83 598.5,-766.83 598.5,-770.79 594.54,-774.75 590.58,-774.75"/>
<text xml:space="preserve" text-anchor="middle" x="515.12" y="-757.45" font-family="Arial" font-size="14.00" fill="#cfffac">pages/EditUserProfile.jsx</text>
</g>
<!-- App.jsx&#45;&gt;pages/EditUserProfile.jsx -->
<g id="edge3" class="edge">
<title>App.jsx&#45;&gt;pages/EditUserProfile.jsx</title>
<path fill="none" stroke="#757575" d="M370.78,-745.44C384.72,-747.13 402.26,-749.27 420.23,-751.45"/>
<polygon fill="#757575" stroke="#757575" points="419.6,-754.9 429.95,-752.64 420.45,-747.95 419.6,-754.9"/>
</g>
<!-- pages/Home.jsx -->
<g id="node5" class="node">
<title>pages/Home.jsx</title>
<path fill="none" stroke="#c6c5fe" d="M563.96,-673.75C563.96,-673.75 466.29,-673.75 466.29,-673.75 462.33,-673.75 458.38,-669.79 458.38,-665.83 458.38,-665.83 458.38,-657.92 458.38,-657.92 458.38,-653.96 462.33,-650 466.29,-650 466.29,-650 563.96,-650 563.96,-650 567.92,-650 571.88,-653.96 571.88,-657.92 571.88,-657.92 571.88,-665.83 571.88,-665.83 571.88,-669.79 567.92,-673.75 563.96,-673.75"/>
<text xml:space="preserve" text-anchor="middle" x="515.12" y="-656.45" font-family="Arial" font-size="14.00" fill="#c6c5fe">pages/Home.jsx</text>
</g>
<!-- App.jsx&#45;&gt;pages/Home.jsx -->
<g id="edge4" class="edge">
<title>App.jsx&#45;&gt;pages/Home.jsx</title>
<path fill="none" stroke="#757575" d="M370.86,-731.49C379.03,-728.33 387.83,-724.69 395.75,-720.88 412.44,-712.84 415.32,-708.43 431.75,-699.88 445.78,-692.57 461.47,-685.15 475.37,-678.83"/>
<polygon fill="#757575" stroke="#757575" points="476.53,-682.15 484.21,-674.85 473.65,-675.76 476.53,-682.15"/>
</g>
<!-- pages/MainLayout.jsx -->
<g id="node6" class="node">
<title>pages/MainLayout.jsx</title>
<path fill="none" stroke="#c6c5fe" d="M1345.83,-248.75C1345.83,-248.75 1214.42,-248.75 1214.42,-248.75 1210.46,-248.75 1206.5,-244.79 1206.5,-240.83 1206.5,-240.83 1206.5,-232.92 1206.5,-232.92 1206.5,-228.96 1210.46,-225 1214.42,-225 1214.42,-225 1345.83,-225 1345.83,-225 1349.79,-225 1353.75,-228.96 1353.75,-232.92 1353.75,-232.92 1353.75,-240.83 1353.75,-240.83 1353.75,-244.79 1349.79,-248.75 1345.83,-248.75"/>
<text xml:space="preserve" text-anchor="middle" x="1280.12" y="-231.45" font-family="Arial" font-size="14.00" fill="#c6c5fe">pages/MainLayout.jsx</text>
</g>
<!-- App.jsx&#45;&gt;pages/MainLayout.jsx -->
<g id="edge5" class="edge">
<title>App.jsx&#45;&gt;pages/MainLayout.jsx</title>
<path fill="none" stroke="#757575" d="M370.85,-736.84C380.21,-733.77 389.69,-728.83 395.75,-720.88 444.44,-656.9 376.21,-419.01 431.75,-360.88 639.87,-143.03 1049.44,-192.36 1211.15,-222.4"/>
<polygon fill="#757575" stroke="#757575" points="1210.39,-225.81 1220.87,-224.24 1211.69,-218.94 1210.39,-225.81"/>
</g>
<!-- pages/People.jsx -->
<g id="node7" class="node">
<title>pages/People.jsx</title>
<path fill="none" stroke="#c6c5fe" d="M1935.08,-385.75C1935.08,-385.75 1832.17,-385.75 1832.17,-385.75 1828.21,-385.75 1824.25,-381.79 1824.25,-377.83 1824.25,-377.83 1824.25,-369.92 1824.25,-369.92 1824.25,-365.96 1828.21,-362 1832.17,-362 1832.17,-362 1935.08,-362 1935.08,-362 1939.04,-362 1943,-365.96 1943,-369.92 1943,-369.92 1943,-377.83 1943,-377.83 1943,-381.79 1939.04,-385.75 1935.08,-385.75"/>
<text xml:space="preserve" text-anchor="middle" x="1883.62" y="-368.45" font-family="Arial" font-size="14.00" fill="#c6c5fe">pages/People.jsx</text>
</g>
<!-- App.jsx&#45;&gt;pages/People.jsx -->
<g id="edge6" class="edge">
<title>App.jsx&#45;&gt;pages/People.jsx</title>
<path fill="none" stroke="#757575" d="M370.9,-735.14C379.72,-731.97 388.86,-727.41 395.75,-720.88 424.05,-694.05 407.91,-671.72 431.75,-640.88 547.06,-491.69 573.7,-374.88 762.25,-374.88 762.25,-374.88 762.25,-374.88 1281.12,-374.88 1473.51,-374.88 1700.51,-374.36 1812.67,-374.07"/>
<polygon fill="#757575" stroke="#757575" points="1812.63,-377.57 1822.62,-374.04 1812.61,-370.57 1812.63,-377.57"/>
</g>
<!-- pages/Timeline.jsx -->
<g id="node8" class="node">
<title>pages/Timeline.jsx</title>
<path fill="none" stroke="#c6c5fe" d="M571.46,-732.75C571.46,-732.75 458.79,-732.75 458.79,-732.75 454.83,-732.75 450.88,-728.79 450.88,-724.83 450.88,-724.83 450.88,-716.92 450.88,-716.92 450.88,-712.96 454.83,-709 458.79,-709 458.79,-709 571.46,-709 571.46,-709 575.42,-709 579.38,-712.96 579.38,-716.92 579.38,-716.92 579.38,-724.83 579.38,-724.83 579.38,-728.79 575.42,-732.75 571.46,-732.75"/>
<text xml:space="preserve" text-anchor="middle" x="515.12" y="-715.45" font-family="Arial" font-size="14.00" fill="#c6c5fe">pages/Timeline.jsx</text>
</g>
<!-- App.jsx&#45;&gt;pages/Timeline.jsx -->
<g id="edge7" class="edge">
<title>App.jsx&#45;&gt;pages/Timeline.jsx</title>
<path fill="none" stroke="#757575" d="M370.78,-738.31C389.63,-736.02 415.05,-732.93 439.25,-729.98"/>
<polygon fill="#757575" stroke="#757575" points="439.62,-733.46 449.12,-728.78 438.77,-726.52 439.62,-733.46"/>
</g>
<!-- context/AuthContext.jsx -->
<g id="node30" class="node">
<title>context/AuthContext.jsx</title>
<path fill="none" stroke="#c6c5fe" d="M2511.21,-794.75C2511.21,-794.75 2369.29,-794.75 2369.29,-794.75 2365.33,-794.75 2361.38,-790.79 2361.38,-786.83 2361.38,-786.83 2361.38,-778.92 2361.38,-778.92 2361.38,-774.96 2365.33,-771 2369.29,-771 2369.29,-771 2511.21,-771 2511.21,-771 2515.17,-771 2519.12,-774.96 2519.12,-778.92 2519.12,-778.92 2519.12,-786.83 2519.12,-786.83 2519.12,-790.79 2515.17,-794.75 2511.21,-794.75"/>
<text xml:space="preserve" text-anchor="middle" x="2440.25" y="-777.45" font-family="Arial" font-size="14.00" fill="#c6c5fe">context/AuthContext.jsx</text>
</g>
<!-- components/navigation/PrivateRoute.jsx&#45;&gt;context/AuthContext.jsx -->
<g id="edge26" class="edge">
<title>components/navigation/PrivateRoute.jsx&#45;&gt;context/AuthContext.jsx</title>
<path fill="none" stroke="#757575" d="M892.24,-911.9C996.4,-915.56 1147.24,-919.88 1279.12,-919.88 1279.12,-919.88 1279.12,-919.88 1884.62,-919.88 1976.92,-919.88 2221.39,-950.04 2299.5,-900.88 2328.11,-882.87 2311.17,-857.34 2335.5,-833.88 2350.91,-819.01 2371.49,-807.68 2390.25,-799.52"/>
<polygon fill="#757575" stroke="#757575" points="2391.43,-802.82 2399.34,-795.77 2388.76,-796.35 2391.43,-802.82"/>
</g>
<!-- components/auth/AuthForm.jsx -->
<g id="node15" class="node">
<title>components/auth/AuthForm.jsx</title>
<path fill="none" stroke="#c6c5fe" d="M857.46,-853.75C857.46,-853.75 669.04,-853.75 669.04,-853.75 665.08,-853.75 661.12,-849.79 661.12,-845.83 661.12,-845.83 661.12,-837.92 661.12,-837.92 661.12,-833.96 665.08,-830 669.04,-830 669.04,-830 857.46,-830 857.46,-830 861.42,-830 865.38,-833.96 865.38,-837.92 865.38,-837.92 865.38,-845.83 865.38,-845.83 865.38,-849.79 861.42,-853.75 857.46,-853.75"/>
<text xml:space="preserve" text-anchor="middle" x="763.25" y="-836.45" font-family="Arial" font-size="14.00" fill="#c6c5fe">components/auth/AuthForm.jsx</text>
</g>
<!-- pages/AuthPage.jsx&#45;&gt;components/auth/AuthForm.jsx -->
<g id="edge71" class="edge">
<title>pages/AuthPage.jsx&#45;&gt;components/auth/AuthForm.jsx</title>
<path fill="none" stroke="#757575" d="M583.38,-820.8C603.84,-823.21 626.9,-825.93 649.5,-828.59"/>
<polygon fill="#757575" stroke="#757575" points="649.05,-832.06 659.4,-829.76 649.87,-825.11 649.05,-832.06"/>
</g>
<!-- pages/Home.jsx&#45;&gt;context/AuthContext.jsx -->
<g id="edge74" class="edge">
<title>pages/Home.jsx&#45;&gt;context/AuthContext.jsx</title>
<path fill="none" stroke="#757575" d="M572.13,-661.3C591.84,-661.13 614.15,-660.96 634.5,-660.88 719.42,-660.52 1327.76,-614.28 1398.75,-660.88 1432.37,-682.94 1401.57,-721.17 1434.75,-743.88 1472.15,-769.47 2110.22,-779.21 2349.54,-781.97"/>
<polygon fill="#757575" stroke="#757575" points="2349.42,-785.47 2359.46,-782.08 2349.5,-778.47 2349.42,-785.47"/>
</g>
<!-- components/post/NewPostForm.jsx -->
<g id="node34" class="node">
<title>components/post/NewPostForm.jsx</title>
<path fill="none" stroke="#c6c5fe" d="M1682.83,-663.75C1682.83,-663.75 1468.92,-663.75 1468.92,-663.75 1464.96,-663.75 1461,-659.79 1461,-655.83 1461,-655.83 1461,-647.92 1461,-647.92 1461,-643.96 1464.96,-640 1468.92,-640 1468.92,-640 1682.83,-640 1682.83,-640 1686.79,-640 1690.75,-643.96 1690.75,-647.92 1690.75,-647.92 1690.75,-655.83 1690.75,-655.83 1690.75,-659.79 1686.79,-663.75 1682.83,-663.75"/>
<text xml:space="preserve" text-anchor="middle" x="1575.88" y="-646.45" font-family="Arial" font-size="14.00" fill="#c6c5fe">components/post/NewPostForm.jsx</text>
</g>
<!-- pages/Home.jsx&#45;&gt;components/post/NewPostForm.jsx -->
<g id="edge72" class="edge">
<title>pages/Home.jsx&#45;&gt;components/post/NewPostForm.jsx</title>
<path fill="none" stroke="#757575" d="M549.51,-649.57C572.93,-641.62 605.17,-632 634.5,-627.88 970.85,-580.53 1059.86,-604.89 1398.75,-627.88 1428.51,-629.89 1460.91,-633.81 1489.71,-637.9"/>
<polygon fill="#757575" stroke="#757575" points="1489.08,-641.35 1499.48,-639.32 1490.09,-634.42 1489.08,-641.35"/>
</g>
<!-- components/post/PostList.jsx -->
<g id="node39" class="node">
<title>components/post/PostList.jsx</title>
<path fill="none" stroke="#c6c5fe" d="M851.08,-693.75C851.08,-693.75 675.42,-693.75 675.42,-693.75 671.46,-693.75 667.5,-689.79 667.5,-685.83 667.5,-685.83 667.5,-677.92 667.5,-677.92 667.5,-673.96 671.46,-670 675.42,-670 675.42,-670 851.08,-670 851.08,-670 855.04,-670 859,-673.96 859,-677.92 859,-677.92 859,-685.83 859,-685.83 859,-689.79 855.04,-693.75 851.08,-693.75"/>
<text xml:space="preserve" text-anchor="middle" x="763.25" y="-676.45" font-family="Arial" font-size="14.00" fill="#c6c5fe">components/post/PostList.jsx</text>
</g>
<!-- pages/Home.jsx&#45;&gt;components/post/PostList.jsx -->
<g id="edge73" class="edge">
<title>pages/Home.jsx&#45;&gt;components/post/PostList.jsx</title>
<path fill="none" stroke="#757575" d="M572.28,-666.44C597.08,-668.45 627.09,-670.89 655.86,-673.23"/>
<polygon fill="#757575" stroke="#757575" points="655.48,-676.71 665.73,-674.03 656.04,-669.73 655.48,-676.71"/>
</g>
<!-- components/chat/Messages.jsx -->
<g id="node17" class="node">
<title>components/chat/Messages.jsx</title>
<path fill="none" stroke="#c6c5fe" d="M1670.83,-268.75C1670.83,-268.75 1480.92,-268.75 1480.92,-268.75 1476.96,-268.75 1473,-264.79 1473,-260.83 1473,-260.83 1473,-252.92 1473,-252.92 1473,-248.96 1476.96,-245 1480.92,-245 1480.92,-245 1670.83,-245 1670.83,-245 1674.79,-245 1678.75,-248.96 1678.75,-252.92 1678.75,-252.92 1678.75,-260.83 1678.75,-260.83 1678.75,-264.79 1674.79,-268.75 1670.83,-268.75"/>
<text xml:space="preserve" text-anchor="middle" x="1575.88" y="-251.45" font-family="Arial" font-size="14.00" fill="#c6c5fe">components/chat/Messages.jsx</text>
</g>
<!-- pages/MainLayout.jsx&#45;&gt;components/chat/Messages.jsx -->
<g id="edge75" class="edge">
<title>pages/MainLayout.jsx&#45;&gt;components/chat/Messages.jsx</title>
<path fill="none" stroke="#757575" d="M1354.11,-241.84C1386.53,-244.05 1425.44,-246.7 1461.5,-249.16"/>
<polygon fill="#757575" stroke="#757575" points="1460.86,-252.62 1471.08,-249.81 1461.34,-245.64 1460.86,-252.62"/>
</g>
<!-- components/navigation/Navbar.jsx -->
<g id="node29" class="node">
<title>components/navigation/Navbar.jsx</title>
<path fill="none" stroke="#c6c5fe" d="M1986.83,-221.75C1986.83,-221.75 1780.42,-221.75 1780.42,-221.75 1776.46,-221.75 1772.5,-217.79 1772.5,-213.83 1772.5,-213.83 1772.5,-205.92 1772.5,-205.92 1772.5,-201.96 1776.46,-198 1780.42,-198 1780.42,-198 1986.83,-198 1986.83,-198 1990.79,-198 1994.75,-201.96 1994.75,-205.92 1994.75,-205.92 1994.75,-213.83 1994.75,-213.83 1994.75,-217.79 1990.79,-221.75 1986.83,-221.75"/>
<text xml:space="preserve" text-anchor="middle" x="1883.62" y="-204.45" font-family="Arial" font-size="14.00" fill="#c6c5fe">components/navigation/Navbar.jsx</text>
</g>
<!-- pages/MainLayout.jsx&#45;&gt;components/navigation/Navbar.jsx -->
<g id="edge76" class="edge">
<title>pages/MainLayout.jsx&#45;&gt;components/navigation/Navbar.jsx</title>
<path fill="none" stroke="#757575" d="M1353.98,-233.6C1454.98,-229.07 1638.87,-220.82 1760.91,-215.34"/>
<polygon fill="#757575" stroke="#757575" points="1760.81,-218.85 1770.64,-214.9 1760.49,-211.85 1760.81,-218.85"/>
</g>
<!-- components/user/UserProfileSidebar.jsx -->
<g id="node43" class="node">
<title>components/user/UserProfileSidebar.jsx</title>
<path fill="none" stroke="#c6c5fe" d="M2004.08,-88.75C2004.08,-88.75 1763.17,-88.75 1763.17,-88.75 1759.21,-88.75 1755.25,-84.79 1755.25,-80.83 1755.25,-80.83 1755.25,-72.92 1755.25,-72.92 1755.25,-68.96 1759.21,-65 1763.17,-65 1763.17,-65 2004.08,-65 2004.08,-65 2008.04,-65 2012,-68.96 2012,-72.92 2012,-72.92 2012,-80.83 2012,-80.83 2012,-84.79 2008.04,-88.75 2004.08,-88.75"/>
<text xml:space="preserve" text-anchor="middle" x="1883.62" y="-71.45" font-family="Arial" font-size="14.00" fill="#c6c5fe">components/user/UserProfileSidebar.jsx</text>
</g>
<!-- pages/MainLayout.jsx&#45;&gt;components/user/UserProfileSidebar.jsx -->
<g id="edge77" class="edge">
<title>pages/MainLayout.jsx&#45;&gt;components/user/UserProfileSidebar.jsx</title>
<path fill="none" stroke="#757575" d="M1353.93,-225.2C1468.93,-206.57 1683.12,-171.09 1717,-159.88 1767.01,-143.32 1820.82,-113.98 1853.1,-94.98"/>
<polygon fill="#757575" stroke="#757575" points="1854.69,-98.11 1861.49,-89.98 1851.11,-92.1 1854.69,-98.11"/>
</g>
<!-- components/user/UserSuggestions.jsx -->
<g id="node44" class="node">
<title>components/user/UserSuggestions.jsx</title>
<path fill="none" stroke="#c6c5fe" d="M1999.21,-343.75C1999.21,-343.75 1768.04,-343.75 1768.04,-343.75 1764.08,-343.75 1760.12,-339.79 1760.12,-335.83 1760.12,-335.83 1760.12,-327.92 1760.12,-327.92 1760.12,-323.96 1764.08,-320 1768.04,-320 1768.04,-320 1999.21,-320 1999.21,-320 2003.17,-320 2007.12,-323.96 2007.12,-327.92 2007.12,-327.92 2007.12,-335.83 2007.12,-335.83 2007.12,-339.79 2003.17,-343.75 1999.21,-343.75"/>
<text xml:space="preserve" text-anchor="middle" x="1883.62" y="-326.45" font-family="Arial" font-size="14.00" fill="#c6c5fe">components/user/UserSuggestions.jsx</text>
</g>
<!-- pages/MainLayout.jsx&#45;&gt;components/user/UserSuggestions.jsx -->
<g id="edge78" class="edge">
<title>pages/MainLayout.jsx&#45;&gt;components/user/UserSuggestions.jsx</title>
<path fill="none" stroke="#757575" d="M1321.2,-249.23C1351.99,-258.32 1395.72,-270.35 1434.75,-277.88 1539.29,-298.02 1659.09,-312 1748.47,-320.68"/>
<polygon fill="#757575" stroke="#757575" points="1747.97,-324.15 1758.26,-321.62 1748.64,-317.18 1747.97,-324.15"/>
</g>
<!-- styles/MainLayout.css -->
<g id="node49" class="node">
<title>styles/MainLayout.css</title>
<path fill="none" stroke="#cfffac" d="M1642.33,-150.75C1642.33,-150.75 1509.42,-150.75 1509.42,-150.75 1505.46,-150.75 1501.5,-146.79 1501.5,-142.83 1501.5,-142.83 1501.5,-134.92 1501.5,-134.92 1501.5,-130.96 1505.46,-127 1509.42,-127 1509.42,-127 1642.33,-127 1642.33,-127 1646.29,-127 1650.25,-130.96 1650.25,-134.92 1650.25,-134.92 1650.25,-142.83 1650.25,-142.83 1650.25,-146.79 1646.29,-150.75 1642.33,-150.75"/>
<text xml:space="preserve" text-anchor="middle" x="1575.88" y="-133.45" font-family="Arial" font-size="14.00" fill="#cfffac">styles/MainLayout.css</text>
</g>
<!-- pages/MainLayout.jsx&#45;&gt;styles/MainLayout.css -->
<g id="edge79" class="edge">
<title>pages/MainLayout.jsx&#45;&gt;styles/MainLayout.css</title>
<path fill="none" stroke="#757575" d="M1302.79,-224.55C1331.91,-208.5 1385.67,-180.64 1434.75,-164.88 1452.39,-159.21 1471.7,-154.63 1490.19,-150.99"/>
<polygon fill="#757575" stroke="#757575" points="1490.61,-154.48 1499.79,-149.18 1489.31,-147.6 1490.61,-154.48"/>
</g>
<!-- api/useApiQuery.js -->
<g id="node12" class="node">
<title>api/useApiQuery.js</title>
<path fill="none" stroke="#c6c5fe" d="M2496.96,-408.75C2496.96,-408.75 2383.54,-408.75 2383.54,-408.75 2379.58,-408.75 2375.62,-404.79 2375.62,-400.83 2375.62,-400.83 2375.62,-392.92 2375.62,-392.92 2375.62,-388.96 2379.58,-385 2383.54,-385 2383.54,-385 2496.96,-385 2496.96,-385 2500.92,-385 2504.88,-388.96 2504.88,-392.92 2504.88,-392.92 2504.88,-400.83 2504.88,-400.83 2504.88,-404.79 2500.92,-408.75 2496.96,-408.75"/>
<text xml:space="preserve" text-anchor="middle" x="2440.25" y="-391.45" font-family="Arial" font-size="14.00" fill="#c6c5fe">api/useApiQuery.js</text>
</g>
<!-- pages/People.jsx&#45;&gt;api/useApiQuery.js -->
<g id="edge80" class="edge">
<title>pages/People.jsx&#45;&gt;api/useApiQuery.js</title>
<path fill="none" stroke="#757575" d="M1943.26,-371.59C1966.3,-368.88 1992.4,-363.46 2014.25,-352.88 2033.78,-343.41 2030.02,-327.74 2050.25,-319.88 2153.49,-279.72 2192.22,-292.28 2299.5,-319.88 2343.22,-331.12 2387.92,-359.26 2414.63,-378.22"/>
<polygon fill="#757575" stroke="#757575" points="2412.24,-380.82 2422.39,-383.85 2416.35,-375.15 2412.24,-380.82"/>
</g>
<!-- components/common/FollowButton.jsx -->
<g id="node22" class="node">
<title>components/common/FollowButton.jsx</title>
<path fill="none" stroke="#c6c5fe" d="M2291.58,-267.75C2291.58,-267.75 2058.17,-267.75 2058.17,-267.75 2054.21,-267.75 2050.25,-263.79 2050.25,-259.83 2050.25,-259.83 2050.25,-251.92 2050.25,-251.92 2050.25,-247.96 2054.21,-244 2058.17,-244 2058.17,-244 2291.58,-244 2291.58,-244 2295.54,-244 2299.5,-247.96 2299.5,-251.92 2299.5,-251.92 2299.5,-259.83 2299.5,-259.83 2299.5,-263.79 2295.54,-267.75 2291.58,-267.75"/>
<text xml:space="preserve" text-anchor="middle" x="2174.88" y="-250.45" font-family="Arial" font-size="14.00" fill="#c6c5fe">components/common/FollowButton.jsx</text>
</g>
<!-- pages/People.jsx&#45;&gt;components/common/FollowButton.jsx -->
<g id="edge81" class="edge">
<title>pages/People.jsx&#45;&gt;components/common/FollowButton.jsx</title>
<path fill="none" stroke="#757575" d="M1943.26,-375.61C1967.22,-373.63 1994,-367.67 2014.25,-352.88 2042.82,-332 2022.18,-303.41 2050.25,-281.88 2054.64,-278.51 2059.37,-275.55 2064.32,-272.95"/>
<polygon fill="#757575" stroke="#757575" points="2065.79,-276.13 2073.4,-268.76 2062.85,-269.78 2065.79,-276.13"/>
</g>
<!-- components/common/UserRow.jsx -->
<g id="node28" class="node">
<title>components/common/UserRow.jsx</title>
<path fill="none" stroke="#c6c5fe" d="M2279.96,-225.75C2279.96,-225.75 2069.79,-225.75 2069.79,-225.75 2065.83,-225.75 2061.88,-221.79 2061.88,-217.83 2061.88,-217.83 2061.88,-209.92 2061.88,-209.92 2061.88,-205.96 2065.83,-202 2069.79,-202 2069.79,-202 2279.96,-202 2279.96,-202 2283.92,-202 2287.88,-205.96 2287.88,-209.92 2287.88,-209.92 2287.88,-217.83 2287.88,-217.83 2287.88,-221.79 2283.92,-225.75 2279.96,-225.75"/>
<text xml:space="preserve" text-anchor="middle" x="2174.88" y="-208.45" font-family="Arial" font-size="14.00" fill="#c6c5fe">components/common/UserRow.jsx</text>
</g>
<!-- pages/People.jsx&#45;&gt;components/common/UserRow.jsx -->
<g id="edge82" class="edge">
<title>pages/People.jsx&#45;&gt;components/common/UserRow.jsx</title>
<path fill="none" stroke="#757575" d="M1943.27,-377.35C1967.8,-375.78 1995.01,-369.67 2014.25,-352.88 2055.56,-316.82 2009.08,-271.09 2050.25,-234.88 2051.19,-234.05 2052.15,-233.25 2053.13,-232.47"/>
<polygon fill="#757575" stroke="#757575" points="2054.84,-235.54 2061.15,-227.03 2050.91,-229.75 2054.84,-235.54"/>
</g>
<!-- pages/People.jsx&#45;&gt;context/AuthContext.jsx -->
<g id="edge83" class="edge">
<title>pages/People.jsx&#45;&gt;context/AuthContext.jsx</title>
<path fill="none" stroke="#757575" d="M1897.21,-386.13C1920.9,-409.38 1973.37,-461.75 2014.25,-508.88 2031.26,-528.49 2030.71,-537.79 2050.25,-554.88 2110.45,-607.51 2322.3,-721.34 2405.42,-765.17"/>
<polygon fill="#757575" stroke="#757575" points="2403.77,-768.26 2414.25,-769.82 2407.03,-762.06 2403.77,-768.26"/>
</g>
<!-- pages/Timeline.jsx&#45;&gt;context/AuthContext.jsx -->
<g id="edge85" class="edge">
<title>pages/Timeline.jsx&#45;&gt;context/AuthContext.jsx</title>
<path fill="none" stroke="#757575" d="M577.82,-733.18C693.54,-755.84 939.3,-801.88 1025.75,-801.88 1025.75,-801.88 1025.75,-801.88 1884.62,-801.88 2048.86,-801.88 2240.3,-793.45 2349.88,-787.82"/>
<polygon fill="#757575" stroke="#757575" points="2349.89,-791.33 2359.69,-787.31 2349.53,-784.33 2349.89,-791.33"/>
</g>
<!-- pages/Timeline.jsx&#45;&gt;components/post/PostList.jsx -->
<g id="edge84" class="edge">
<title>pages/Timeline.jsx&#45;&gt;components/post/PostList.jsx</title>
<path fill="none" stroke="#757575" d="M579.83,-710.78C608.24,-706.28 642.21,-700.9 673.09,-696"/>
<polygon fill="#757575" stroke="#757575" points="673.49,-699.48 682.82,-694.46 672.39,-692.57 673.49,-699.48"/>
</g>
<!-- api/apiHelper.jsx -->
<g id="node9" class="node">
<title>api/apiHelper.jsx</title>
<path fill="none" stroke="#cfffac" d="M2941.08,-549.75C2941.08,-549.75 2841.92,-549.75 2841.92,-549.75 2837.96,-549.75 2834,-545.79 2834,-541.83 2834,-541.83 2834,-533.92 2834,-533.92 2834,-529.96 2837.96,-526 2841.92,-526 2841.92,-526 2941.08,-526 2941.08,-526 2945.04,-526 2949,-529.96 2949,-533.92 2949,-533.92 2949,-541.83 2949,-541.83 2949,-545.79 2945.04,-549.75 2941.08,-549.75"/>
<text xml:space="preserve" text-anchor="middle" x="2891.5" y="-532.45" font-family="Arial" font-size="14.00" fill="#cfffac">api/apiHelper.jsx</text>
</g>
<!-- api/queryMaps.js -->
<g id="node10" class="node">
<title>api/queryMaps.js</title>
<path fill="none" stroke="#cfffac" d="M2740.96,-448.75C2740.96,-448.75 2638.04,-448.75 2638.04,-448.75 2634.08,-448.75 2630.12,-444.79 2630.12,-440.83 2630.12,-440.83 2630.12,-432.92 2630.12,-432.92 2630.12,-428.96 2634.08,-425 2638.04,-425 2638.04,-425 2740.96,-425 2740.96,-425 2744.92,-425 2748.88,-428.96 2748.88,-432.92 2748.88,-432.92 2748.88,-440.83 2748.88,-440.83 2748.88,-444.79 2744.92,-448.75 2740.96,-448.75"/>
<text xml:space="preserve" text-anchor="middle" x="2689.5" y="-431.45" font-family="Arial" font-size="14.00" fill="#cfffac">api/queryMaps.js</text>
</g>
<!-- api/useApiMutation.js -->
<g id="node11" class="node">
<title>api/useApiMutation.js</title>
<path fill="none" stroke="#c6c5fe" d="M2754.08,-604.75C2754.08,-604.75 2624.92,-604.75 2624.92,-604.75 2620.96,-604.75 2617,-600.79 2617,-596.83 2617,-596.83 2617,-588.92 2617,-588.92 2617,-584.96 2620.96,-581 2624.92,-581 2624.92,-581 2754.08,-581 2754.08,-581 2758.04,-581 2762,-584.96 2762,-588.92 2762,-588.92 2762,-596.83 2762,-596.83 2762,-600.79 2758.04,-604.75 2754.08,-604.75"/>
<text xml:space="preserve" text-anchor="middle" x="2689.5" y="-587.45" font-family="Arial" font-size="14.00" fill="#c6c5fe">api/useApiMutation.js</text>
</g>
<!-- api/useApiMutation.js&#45;&gt;api/apiHelper.jsx -->
<g id="edge8" class="edge">
<title>api/useApiMutation.js&#45;&gt;api/apiHelper.jsx</title>
<path fill="none" stroke="#757575" d="M2735.38,-580.53C2764.85,-572.43 2803.6,-561.77 2834.99,-553.14"/>
<polygon fill="#757575" stroke="#757575" points="2835.59,-556.6 2844.31,-550.58 2833.74,-549.86 2835.59,-556.6"/>
</g>
<!-- api/useApiQuery.js&#45;&gt;api/apiHelper.jsx -->
<g id="edge9" class="edge">
<title>api/useApiQuery.js&#45;&gt;api/apiHelper.jsx</title>
<path fill="none" stroke="#757575" d="M2505.1,-384.9C2579.96,-374.19 2705.53,-366.84 2798,-415.88 2839.05,-437.64 2867.16,-486.56 2880.87,-515.41"/>
<polygon fill="#757575" stroke="#757575" points="2877.61,-516.69 2884.94,-524.35 2883.98,-513.79 2877.61,-516.69"/>
</g>
<!-- api/useApiQuery.js&#45;&gt;api/queryMaps.js -->
<g id="edge10" class="edge">
<title>api/useApiQuery.js&#45;&gt;api/queryMaps.js</title>
<path fill="none" stroke="#757575" d="M2505.24,-407.23C2539.98,-412.85 2582.96,-419.8 2618.57,-425.56"/>
<polygon fill="#757575" stroke="#757575" points="2617.93,-429 2628.36,-427.15 2619.05,-422.09 2617.93,-429"/>
</g>
<!-- api/useInfiniteApiQuery.jsx -->
<g id="node13" class="node">
<title>api/useInfiniteApiQuery.jsx</title>
<path fill="none" stroke="#c6c5fe" d="M2520.21,-474.75C2520.21,-474.75 2360.29,-474.75 2360.29,-474.75 2356.33,-474.75 2352.38,-470.79 2352.38,-466.83 2352.38,-466.83 2352.38,-458.92 2352.38,-458.92 2352.38,-454.96 2356.33,-451 2360.29,-451 2360.29,-451 2520.21,-451 2520.21,-451 2524.17,-451 2528.12,-454.96 2528.12,-458.92 2528.12,-458.92 2528.12,-466.83 2528.12,-466.83 2528.12,-470.79 2524.17,-474.75 2520.21,-474.75"/>
<text xml:space="preserve" text-anchor="middle" x="2440.25" y="-457.45" font-family="Arial" font-size="14.00" fill="#c6c5fe">api/useInfiniteApiQuery.jsx</text>
</g>
<!-- api/useInfiniteApiQuery.jsx&#45;&gt;api/apiHelper.jsx -->
<g id="edge11" class="edge">
<title>api/useInfiniteApiQuery.jsx&#45;&gt;api/apiHelper.jsx</title>
<path fill="none" stroke="#757575" d="M2528.44,-462.88C2601.55,-464.79 2708.12,-472.04 2798,-495.88 2819.04,-501.45 2841.28,-511.41 2858.69,-520.23"/>
<polygon fill="#757575" stroke="#757575" points="2857.01,-523.31 2867.5,-524.83 2860.25,-517.1 2857.01,-523.31"/>
</g>
<!-- api/useInfiniteApiQuery.jsx&#45;&gt;api/queryMaps.js -->
<g id="edge12" class="edge">
<title>api/useInfiniteApiQuery.jsx&#45;&gt;api/queryMaps.js</title>
<path fill="none" stroke="#757575" d="M2528.42,-453.71C2557.99,-450.6 2590.62,-447.17 2618.66,-444.22"/>
<polygon fill="#757575" stroke="#757575" points="2618.89,-447.71 2628.47,-443.19 2618.15,-440.75 2618.89,-447.71"/>
</g>
<!-- components/common/Spinner.jsx -->
<g id="node14" class="node">
<title>components/common/Spinner.jsx</title>
<path fill="none" stroke="#cfffac" d="M2790.08,-528.75C2790.08,-528.75 2588.92,-528.75 2588.92,-528.75 2584.96,-528.75 2581,-524.79 2581,-520.83 2581,-520.83 2581,-512.92 2581,-512.92 2581,-508.96 2584.96,-505 2588.92,-505 2588.92,-505 2790.08,-505 2790.08,-505 2794.04,-505 2798,-508.96 2798,-512.92 2798,-512.92 2798,-520.83 2798,-520.83 2798,-524.79 2794.04,-528.75 2790.08,-528.75"/>
<text xml:space="preserve" text-anchor="middle" x="2689.5" y="-511.45" font-family="Arial" font-size="14.00" fill="#cfffac">components/common/Spinner.jsx</text>
</g>
<!-- api/useInfiniteApiQuery.jsx&#45;&gt;components/common/Spinner.jsx -->
<g id="edge13" class="edge">
<title>api/useInfiniteApiQuery.jsx&#45;&gt;components/common/Spinner.jsx</title>
<path fill="none" stroke="#757575" d="M2497.66,-475.2C2534.25,-483.19 2582.11,-493.64 2620.75,-502.08"/>
<polygon fill="#757575" stroke="#757575" points="2619.91,-505.48 2630.42,-504.19 2621.4,-498.64 2619.91,-505.48"/>
</g>
<!-- hooks/useAuthForm.js -->
<g id="node16" class="node">
<title>hooks/useAuthForm.js</title>
<path fill="none" stroke="#c6c5fe" d="M1094.33,-853.75C1094.33,-853.75 959.17,-853.75 959.17,-853.75 955.21,-853.75 951.25,-849.79 951.25,-845.83 951.25,-845.83 951.25,-837.92 951.25,-837.92 951.25,-833.96 955.21,-830 959.17,-830 959.17,-830 1094.33,-830 1094.33,-830 1098.29,-830 1102.25,-833.96 1102.25,-837.92 1102.25,-837.92 1102.25,-845.83 1102.25,-845.83 1102.25,-849.79 1098.29,-853.75 1094.33,-853.75"/>
<text xml:space="preserve" text-anchor="middle" x="1026.75" y="-836.45" font-family="Arial" font-size="14.00" fill="#c6c5fe">hooks/useAuthForm.js</text>
</g>
<!-- components/auth/AuthForm.jsx&#45;&gt;hooks/useAuthForm.js -->
<g id="edge14" class="edge">
<title>components/auth/AuthForm.jsx&#45;&gt;hooks/useAuthForm.js</title>
<path fill="none" stroke="#757575" d="M865.73,-841.88C890.16,-841.88 916.02,-841.88 939.67,-841.88"/>
<polygon fill="#757575" stroke="#757575" points="939.57,-845.38 949.57,-841.88 939.57,-838.38 939.57,-845.38"/>
</g>
<!-- hooks/useAuthForm.js&#45;&gt;context/AuthContext.jsx -->
<g id="edge61" class="edge">
<title>hooks/useAuthForm.js&#45;&gt;context/AuthContext.jsx</title>
<path fill="none" stroke="#757575" d="M1102.53,-841.43C1207.89,-840.84 1406.03,-839.88 1574.88,-839.88 1574.88,-839.88 1574.88,-839.88 1884.62,-839.88 2069.32,-839.88 2116.74,-842.53 2299.5,-815.88 2327.97,-811.72 2359.18,-804.61 2384.86,-798.04"/>
<polygon fill="#757575" stroke="#757575" points="2385.62,-801.46 2394.41,-795.56 2383.86,-794.69 2385.62,-801.46"/>
</g>
<!-- components/common/TextInput.jsx -->
<g id="node18" class="node">
<title>components/common/TextInput.jsx</title>
<path fill="none" stroke="#c6c5fe" d="M1988.71,-541.75C1988.71,-541.75 1778.54,-541.75 1778.54,-541.75 1774.58,-541.75 1770.62,-537.79 1770.62,-533.83 1770.62,-533.83 1770.62,-525.92 1770.62,-525.92 1770.62,-521.96 1774.58,-518 1778.54,-518 1778.54,-518 1988.71,-518 1988.71,-518 1992.67,-518 1996.62,-521.96 1996.62,-525.92 1996.62,-525.92 1996.62,-533.83 1996.62,-533.83 1996.62,-537.79 1992.67,-541.75 1988.71,-541.75"/>
<text xml:space="preserve" text-anchor="middle" x="1883.62" y="-524.45" font-family="Arial" font-size="14.00" fill="#c6c5fe">components/common/TextInput.jsx</text>
</g>
<!-- components/chat/Messages.jsx&#45;&gt;components/common/TextInput.jsx -->
<g id="edge15" class="edge">
<title>components/chat/Messages.jsx&#45;&gt;components/common/TextInput.jsx</title>
<path fill="none" stroke="#757575" d="M1590.41,-268.96C1638.45,-311.85 1801.08,-457.07 1860.58,-510.19"/>
<polygon fill="#757575" stroke="#757575" points="1857.98,-512.56 1867.77,-516.61 1862.64,-507.34 1857.98,-512.56"/>
</g>
<!-- components/user/UserList.jsx -->
<g id="node19" class="node">
<title>components/user/UserList.jsx</title>
<path fill="none" stroke="#c6c5fe" d="M1972.58,-263.75C1972.58,-263.75 1794.67,-263.75 1794.67,-263.75 1790.71,-263.75 1786.75,-259.79 1786.75,-255.83 1786.75,-255.83 1786.75,-247.92 1786.75,-247.92 1786.75,-243.96 1790.71,-240 1794.67,-240 1794.67,-240 1972.58,-240 1972.58,-240 1976.54,-240 1980.5,-243.96 1980.5,-247.92 1980.5,-247.92 1980.5,-255.83 1980.5,-255.83 1980.5,-259.79 1976.54,-263.75 1972.58,-263.75"/>
<text xml:space="preserve" text-anchor="middle" x="1883.62" y="-246.45" font-family="Arial" font-size="14.00" fill="#c6c5fe">components/user/UserList.jsx</text>
</g>
<!-- components/chat/Messages.jsx&#45;&gt;components/user/UserList.jsx -->
<g id="edge16" class="edge">
<title>components/chat/Messages.jsx&#45;&gt;components/user/UserList.jsx</title>
<path fill="none" stroke="#757575" d="M1679.11,-255.2C1709.96,-254.7 1743.9,-254.14 1775.08,-253.63"/>
<polygon fill="#757575" stroke="#757575" points="1774.98,-257.14 1784.92,-253.47 1774.86,-250.14 1774.98,-257.14"/>
</g>
<!-- components/common/Avatar.jsx -->
<g id="node21" class="node">
<title>components/common/Avatar.jsx</title>
<path fill="none" stroke="#cfffac" d="M2537.08,-147.75C2537.08,-147.75 2343.42,-147.75 2343.42,-147.75 2339.46,-147.75 2335.5,-143.79 2335.5,-139.83 2335.5,-139.83 2335.5,-131.92 2335.5,-131.92 2335.5,-127.96 2339.46,-124 2343.42,-124 2343.42,-124 2537.08,-124 2537.08,-124 2541.04,-124 2545,-127.96 2545,-131.92 2545,-131.92 2545,-139.83 2545,-139.83 2545,-143.79 2541.04,-147.75 2537.08,-147.75"/>
<text xml:space="preserve" text-anchor="middle" x="2440.25" y="-130.45" font-family="Arial" font-size="14.00" fill="#cfffac">components/common/Avatar.jsx</text>
</g>
<!-- components/common/TextInput.jsx&#45;&gt;components/common/Avatar.jsx -->
<g id="edge20" class="edge">
<title>components/common/TextInput.jsx&#45;&gt;components/common/Avatar.jsx</title>
<path fill="none" stroke="#757575" d="M1896.6,-517.82C1922.7,-492.02 1987.42,-430.58 2050.25,-390.88 2153.23,-325.8 2199.61,-346.6 2299.5,-276.88 2350.25,-241.45 2398.56,-186.35 2422.89,-156.6"/>
<polygon fill="#757575" stroke="#757575" points="2425.41,-159.05 2428.96,-149.07 2419.96,-154.66 2425.41,-159.05"/>
</g>
<!-- hooks/useProfile.js -->
<g id="node25" class="node">
<title>hooks/useProfile.js</title>
<path fill="none" stroke="#c6c5fe" d="M2231.58,-503.75C2231.58,-503.75 2118.17,-503.75 2118.17,-503.75 2114.21,-503.75 2110.25,-499.79 2110.25,-495.83 2110.25,-495.83 2110.25,-487.92 2110.25,-487.92 2110.25,-483.96 2114.21,-480 2118.17,-480 2118.17,-480 2231.58,-480 2231.58,-480 2235.54,-480 2239.5,-483.96 2239.5,-487.92 2239.5,-487.92 2239.5,-495.83 2239.5,-495.83 2239.5,-499.79 2235.54,-503.75 2231.58,-503.75"/>
<text xml:space="preserve" text-anchor="middle" x="2174.88" y="-486.45" font-family="Arial" font-size="14.00" fill="#c6c5fe">hooks/useProfile.js</text>
</g>
<!-- components/common/TextInput.jsx&#45;&gt;hooks/useProfile.js -->
<g id="edge21" class="edge">
<title>components/common/TextInput.jsx&#45;&gt;hooks/useProfile.js</title>
<path fill="none" stroke="#757575" d="M1978.54,-517.54C2017.55,-512.41 2062.21,-506.54 2098.97,-501.72"/>
<polygon fill="#757575" stroke="#757575" points="2099.15,-505.22 2108.61,-500.45 2098.24,-498.28 2099.15,-505.22"/>
</g>
<!-- components/user/UserList.jsx&#45;&gt;components/common/UserRow.jsx -->
<g id="edge49" class="edge">
<title>components/user/UserList.jsx&#45;&gt;components/common/UserRow.jsx</title>
<path fill="none" stroke="#757575" d="M1978.54,-239.54C2007.35,-235.75 2039.24,-231.56 2068.76,-227.68"/>
<polygon fill="#757575" stroke="#757575" points="2068.98,-231.19 2078.44,-226.41 2068.07,-224.25 2068.98,-231.19"/>
</g>
<!-- components/common/ActionButton.jsx -->
<g id="node20" class="node">
<title>components/common/ActionButton.jsx</title>
<path fill="none" stroke="#cfffac" d="M2290.83,-545.75C2290.83,-545.75 2058.92,-545.75 2058.92,-545.75 2054.96,-545.75 2051,-541.79 2051,-537.83 2051,-537.83 2051,-529.92 2051,-529.92 2051,-525.96 2054.96,-522 2058.92,-522 2058.92,-522 2290.83,-522 2290.83,-522 2294.79,-522 2298.75,-525.96 2298.75,-529.92 2298.75,-529.92 2298.75,-537.83 2298.75,-537.83 2298.75,-541.79 2294.79,-545.75 2290.83,-545.75"/>
<text xml:space="preserve" text-anchor="middle" x="2174.88" y="-528.45" font-family="Arial" font-size="14.00" fill="#cfffac">components/common/ActionButton.jsx</text>
</g>
<!-- components/common/FollowButton.jsx&#45;&gt;api/useApiMutation.js -->
<g id="edge17" class="edge">
<title>components/common/FollowButton.jsx&#45;&gt;api/useApiMutation.js</title>
<path fill="none" stroke="#757575" d="M2189.94,-267.94C2214.99,-290.06 2267.66,-339.57 2299.5,-390.88 2322.87,-428.54 2303.08,-453.65 2335.5,-483.88 2357.36,-504.26 2534.58,-552.76 2629.29,-577.61"/>
<polygon fill="#757575" stroke="#757575" points="2628.39,-581 2638.95,-580.14 2630.16,-574.22 2628.39,-581"/>
</g>
<!-- components/common/OnlineStatus.jsx -->
<g id="node23" class="node">
<title>components/common/OnlineStatus.jsx</title>
<path fill="none" stroke="#cfffac" d="M241.33,-795.75C241.33,-795.75 7.92,-795.75 7.92,-795.75 3.96,-795.75 0,-791.79 0,-787.83 0,-787.83 0,-779.92 0,-779.92 0,-775.96 3.96,-772 7.92,-772 7.92,-772 241.33,-772 241.33,-772 245.29,-772 249.25,-775.96 249.25,-779.92 249.25,-779.92 249.25,-787.83 249.25,-787.83 249.25,-791.79 245.29,-795.75 241.33,-795.75"/>
<text xml:space="preserve" text-anchor="middle" x="124.62" y="-778.45" font-family="Arial" font-size="14.00" fill="#cfffac">components/common/OnlineStatus.jsx</text>
</g>
<!-- components/common/RemoveButton.jsx -->
<g id="node24" class="node">
<title>components/common/RemoveButton.jsx</title>
<path fill="none" stroke="#c6c5fe" d="M2006.33,-621.75C2006.33,-621.75 1760.92,-621.75 1760.92,-621.75 1756.96,-621.75 1753,-617.79 1753,-613.83 1753,-613.83 1753,-605.92 1753,-605.92 1753,-601.96 1756.96,-598 1760.92,-598 1760.92,-598 2006.33,-598 2006.33,-598 2010.29,-598 2014.25,-601.96 2014.25,-605.92 2014.25,-605.92 2014.25,-613.83 2014.25,-613.83 2014.25,-617.79 2010.29,-621.75 2006.33,-621.75"/>
<text xml:space="preserve" text-anchor="middle" x="1883.62" y="-604.45" font-family="Arial" font-size="14.00" fill="#c6c5fe">components/common/RemoveButton.jsx</text>
</g>
<!-- components/common/RemoveButton.jsx&#45;&gt;api/useApiMutation.js -->
<g id="edge18" class="edge">
<title>components/common/RemoveButton.jsx&#45;&gt;api/useApiMutation.js</title>
<path fill="none" stroke="#757575" d="M2014.67,-607.12C2181.18,-603.6 2464.89,-597.6 2605.06,-594.64"/>
<polygon fill="#757575" stroke="#757575" points="2605.1,-598.14 2615.02,-594.43 2604.95,-591.14 2605.1,-598.14"/>
</g>
<!-- components/common/RemoveButton.jsx&#45;&gt;hooks/useProfile.js -->
<g id="edge19" class="edge">
<title>components/common/RemoveButton.jsx&#45;&gt;hooks/useProfile.js</title>
<path fill="none" stroke="#757575" d="M1921.27,-597.54C1948.39,-587.42 1985.47,-571.41 2014.25,-550.88 2033.19,-537.36 2029.73,-523.83 2050.25,-512.88 2065.14,-504.93 2082.34,-499.87 2099.1,-496.68"/>
<polygon fill="#757575" stroke="#757575" points="2099.25,-500.2 2108.53,-495.09 2098.08,-493.3 2099.25,-500.2"/>
</g>
<!-- hooks/useProfile.js&#45;&gt;api/useApiQuery.js -->
<g id="edge62" class="edge">
<title>hooks/useProfile.js&#45;&gt;api/useApiQuery.js</title>
<path fill="none" stroke="#757575" d="M2210.04,-479.55C2257.21,-462.54 2342.35,-431.83 2394.54,-413"/>
<polygon fill="#757575" stroke="#757575" points="2395.51,-416.37 2403.73,-409.69 2393.13,-409.79 2395.51,-416.37"/>
</g>
<!-- hooks/useProfile.js&#45;&gt;context/AuthContext.jsx -->
<g id="edge63" class="edge">
<title>hooks/useProfile.js&#45;&gt;context/AuthContext.jsx</title>
<path fill="none" stroke="#757575" d="M2239.97,-491.7C2260.57,-494.39 2282.45,-500.42 2299.5,-512.88 2385.32,-575.54 2422.59,-706.62 2434.59,-759.76"/>
<polygon fill="#757575" stroke="#757575" points="2431.1,-760.17 2436.63,-769.21 2437.94,-758.7 2431.1,-760.17"/>
</g>
<!-- components/common/SearchInput.jsx -->
<g id="node26" class="node">
<title>components/common/SearchInput.jsx</title>
<path fill="none" stroke="#cfffac" d="M238.71,-837.75C238.71,-837.75 10.54,-837.75 10.54,-837.75 6.58,-837.75 2.63,-833.79 2.63,-829.83 2.63,-829.83 2.63,-821.92 2.63,-821.92 2.63,-817.96 6.58,-814 10.54,-814 10.54,-814 238.71,-814 238.71,-814 242.67,-814 246.62,-817.96 246.62,-821.92 246.62,-821.92 246.62,-829.83 246.62,-829.83 246.62,-833.79 242.67,-837.75 238.71,-837.75"/>
<text xml:space="preserve" text-anchor="middle" x="124.62" y="-820.45" font-family="Arial" font-size="14.00" fill="#cfffac">components/common/SearchInput.jsx</text>
</g>
<!-- components/common/UserBadge.jsx -->
<g id="node27" class="node">
<title>components/common/UserBadge.jsx</title>
<path fill="none" stroke="#c6c5fe" d="M2286.33,-23.75C2286.33,-23.75 2063.42,-23.75 2063.42,-23.75 2059.46,-23.75 2055.5,-19.79 2055.5,-15.83 2055.5,-15.83 2055.5,-7.92 2055.5,-7.92 2055.5,-3.96 2059.46,0 2063.42,0 2063.42,0 2286.33,0 2286.33,0 2290.29,0 2294.25,-3.96 2294.25,-7.92 2294.25,-7.92 2294.25,-15.83 2294.25,-15.83 2294.25,-19.79 2290.29,-23.75 2286.33,-23.75"/>
<text xml:space="preserve" text-anchor="middle" x="2174.88" y="-6.45" font-family="Arial" font-size="14.00" fill="#c6c5fe">components/common/UserBadge.jsx</text>
</g>
<!-- components/common/UserBadge.jsx&#45;&gt;components/common/Avatar.jsx -->
<g id="edge22" class="edge">
<title>components/common/UserBadge.jsx&#45;&gt;components/common/Avatar.jsx</title>
<path fill="none" stroke="#757575" d="M2274.27,-24.23C2282.96,-26.62 2291.49,-29.47 2299.5,-32.88 2346.9,-53.01 2393.28,-92.15 2418.88,-115.95"/>
<polygon fill="#757575" stroke="#757575" points="2416.28,-118.31 2425.95,-122.64 2421.09,-113.22 2416.28,-118.31"/>
</g>
<!-- components/common/UserRow.jsx&#45;&gt;components/common/Avatar.jsx -->
<g id="edge23" class="edge">
<title>components/common/UserRow.jsx&#45;&gt;components/common/Avatar.jsx</title>
<path fill="none" stroke="#757575" d="M2217.61,-201.52C2263.46,-187.94 2337.17,-166.11 2386.87,-151.39"/>
<polygon fill="#757575" stroke="#757575" points="2387.67,-154.8 2396.26,-148.61 2385.68,-148.09 2387.67,-154.8"/>
</g>
<!-- components/navigation/Navbar.jsx&#45;&gt;components/common/Avatar.jsx -->
<g id="edge24" class="edge">
<title>components/navigation/Navbar.jsx&#45;&gt;components/common/Avatar.jsx</title>
<path fill="none" stroke="#757575" d="M1977.14,-197.53C2076.07,-184.33 2232.57,-163.45 2335.58,-149.71"/>
<polygon fill="#757575" stroke="#757575" points="2335.98,-153.18 2345.43,-148.39 2335.06,-146.25 2335.98,-153.18"/>
</g>
<!-- components/navigation/Navbar.jsx&#45;&gt;hooks/useProfile.js -->
<g id="edge25" class="edge">
<title>components/navigation/Navbar.jsx&#45;&gt;hooks/useProfile.js</title>
<path fill="none" stroke="#757575" d="M1995.23,-217.44C2002.2,-220.95 2008.64,-225.36 2014.25,-230.88 2079.24,-294.85 1994.99,-360.33 2050.25,-432.88 2065.61,-453.05 2089.62,-466.65 2112.41,-475.66"/>
<polygon fill="#757575" stroke="#757575" points="2111.09,-478.9 2121.69,-479.07 2113.51,-472.33 2111.09,-478.9"/>
</g>
<!-- context/AuthContext.jsx&#45;&gt;api/useApiMutation.js -->
<g id="edge59" class="edge">
<title>context/AuthContext.jsx&#45;&gt;api/useApiMutation.js</title>
<path fill="none" stroke="#757575" d="M2457.09,-770.7C2498.95,-738.54 2612.72,-651.1 2663.48,-612.1"/>
<polygon fill="#757575" stroke="#757575" points="2665.47,-614.98 2671.27,-606.12 2661.21,-609.43 2665.47,-614.98"/>
</g>
<!-- components/post/AddComment.jsx -->
<g id="node31" class="node">
<title>components/post/AddComment.jsx</title>
<path fill="none" stroke="#c6c5fe" d="M1681.71,-541.75C1681.71,-541.75 1470.04,-541.75 1470.04,-541.75 1466.08,-541.75 1462.12,-537.79 1462.12,-533.83 1462.12,-533.83 1462.12,-525.92 1462.12,-525.92 1462.12,-521.96 1466.08,-518 1470.04,-518 1470.04,-518 1681.71,-518 1681.71,-518 1685.67,-518 1689.62,-521.96 1689.62,-525.92 1689.62,-525.92 1689.62,-533.83 1689.62,-533.83 1689.62,-537.79 1685.67,-541.75 1681.71,-541.75"/>
<text xml:space="preserve" text-anchor="middle" x="1575.88" y="-524.45" font-family="Arial" font-size="14.00" fill="#c6c5fe">components/post/AddComment.jsx</text>
</g>
<!-- components/post/AddComment.jsx&#45;&gt;api/useApiMutation.js -->
<g id="edge27" class="edge">
<title>components/post/AddComment.jsx&#45;&gt;api/useApiMutation.js</title>
<path fill="none" stroke="#757575" d="M1669.52,-542.22C1696.41,-545.45 1725.84,-548.65 1753,-550.88 2067.1,-576.62 2441.91,-587.46 2605.39,-591.2"/>
<polygon fill="#757575" stroke="#757575" points="2605.2,-594.7 2615.28,-591.43 2605.36,-587.7 2605.2,-594.7"/>
</g>
<!-- components/post/AddComment.jsx&#45;&gt;components/common/TextInput.jsx -->
<g id="edge28" class="edge">
<title>components/post/AddComment.jsx&#45;&gt;components/common/TextInput.jsx</title>
<path fill="none" stroke="#757575" d="M1689.86,-529.88C1712.34,-529.88 1736.06,-529.88 1758.88,-529.88"/>
<polygon fill="#757575" stroke="#757575" points="1758.85,-533.38 1768.85,-529.88 1758.85,-526.38 1758.85,-533.38"/>
</g>
<!-- components/post/CommentsItem.jsx -->
<g id="node32" class="node">
<title>components/post/CommentsItem.jsx</title>
<path fill="none" stroke="#c6c5fe" d="M1390.83,-558.75C1390.83,-558.75 1169.42,-558.75 1169.42,-558.75 1165.46,-558.75 1161.5,-554.79 1161.5,-550.83 1161.5,-550.83 1161.5,-542.92 1161.5,-542.92 1161.5,-538.96 1165.46,-535 1169.42,-535 1169.42,-535 1390.83,-535 1390.83,-535 1394.79,-535 1398.75,-538.96 1398.75,-542.92 1398.75,-542.92 1398.75,-550.83 1398.75,-550.83 1398.75,-554.79 1394.79,-558.75 1390.83,-558.75"/>
<text xml:space="preserve" text-anchor="middle" x="1280.12" y="-541.45" font-family="Arial" font-size="14.00" fill="#c6c5fe">components/post/CommentsItem.jsx</text>
</g>
<!-- components/post/CommentsItem.jsx&#45;&gt;api/useApiQuery.js -->
<g id="edge29" class="edge">
<title>components/post/CommentsItem.jsx&#45;&gt;api/useApiQuery.js</title>
<path fill="none" stroke="#757575" d="M1328.04,-534.58C1358.38,-526.81 1398.79,-516.76 1434.75,-508.88 1570.78,-479.03 1911.61,-404.05 2050.25,-390.88 2159.04,-380.54 2285.7,-385.67 2364.18,-390.84"/>
<polygon fill="#757575" stroke="#757575" points="2363.68,-394.31 2373.89,-391.5 2364.15,-387.33 2363.68,-394.31"/>
</g>
<!-- components/post/CommentsItem.jsx&#45;&gt;components/common/RemoveButton.jsx -->
<g id="edge30" class="edge">
<title>components/post/CommentsItem.jsx&#45;&gt;components/common/RemoveButton.jsx</title>
<path fill="none" stroke="#757575" d="M1313.52,-559.19C1344.23,-570.24 1391.9,-585.77 1434.75,-592.88 1536.42,-609.75 1652.77,-613.71 1741.39,-613.61"/>
<polygon fill="#757575" stroke="#757575" points="1741.38,-617.11 1751.37,-613.58 1741.36,-610.11 1741.38,-617.11"/>
</g>
<!-- components/post/CommentsItem.jsx&#45;&gt;components/common/UserRow.jsx -->
<g id="edge31" class="edge">
<title>components/post/CommentsItem.jsx&#45;&gt;components/common/UserRow.jsx</title>
<path fill="none" stroke="#757575" d="M1299.96,-534.64C1361.89,-495.05 1565.98,-369.57 1753,-310.88 1864.95,-275.74 1910.09,-326.89 2014.25,-272.88 2034.9,-262.16 2029.73,-245.83 2050.25,-234.88 2053.32,-233.24 2056.49,-231.72 2059.73,-230.32"/>
<polygon fill="#757575" stroke="#757575" points="2060.84,-233.64 2068.9,-226.76 2058.31,-227.12 2060.84,-233.64"/>
</g>
<!-- components/post/CommentsItem.jsx&#45;&gt;components/post/AddComment.jsx -->
<g id="edge32" class="edge">
<title>components/post/CommentsItem.jsx&#45;&gt;components/post/AddComment.jsx</title>
<path fill="none" stroke="#757575" d="M1398.91,-540.06C1415.93,-539.07 1433.5,-538.06 1450.64,-537.06"/>
<polygon fill="#757575" stroke="#757575" points="1450.54,-540.58 1460.32,-536.5 1450.14,-533.59 1450.54,-540.58"/>
</g>
<!-- styles/CommentsItem.css -->
<g id="node33" class="node">
<title>styles/CommentsItem.css</title>
<path fill="none" stroke="#cfffac" d="M1653.96,-583.75C1653.96,-583.75 1497.79,-583.75 1497.79,-583.75 1493.83,-583.75 1489.88,-579.79 1489.88,-575.83 1489.88,-575.83 1489.88,-567.92 1489.88,-567.92 1489.88,-563.96 1493.83,-560 1497.79,-560 1497.79,-560 1653.96,-560 1653.96,-560 1657.92,-560 1661.88,-563.96 1661.88,-567.92 1661.88,-567.92 1661.88,-575.83 1661.88,-575.83 1661.88,-579.79 1657.92,-583.75 1653.96,-583.75"/>
<text xml:space="preserve" text-anchor="middle" x="1575.88" y="-566.45" font-family="Arial" font-size="14.00" fill="#cfffac">styles/CommentsItem.css</text>
</g>
<!-- components/post/CommentsItem.jsx&#45;&gt;styles/CommentsItem.css -->
<g id="edge33" class="edge">
<title>components/post/CommentsItem.jsx&#45;&gt;styles/CommentsItem.css</title>
<path fill="none" stroke="#757575" d="M1398.91,-556.9C1425.21,-559.14 1452.81,-561.49 1478.14,-563.64"/>
<polygon fill="#757575" stroke="#757575" points="1477.84,-567.13 1488.1,-564.49 1478.43,-560.15 1477.84,-567.13"/>
</g>
<!-- components/post/NewPostForm.jsx&#45;&gt;api/useApiMutation.js -->
<g id="edge34" class="edge">
<title>components/post/NewPostForm.jsx&#45;&gt;api/useApiMutation.js</title>
<path fill="none" stroke="#757575" d="M1691.1,-650.49C1872.4,-647.55 2237.05,-638.57 2545,-611.88 2564.66,-610.17 2585.76,-607.72 2605.57,-605.15"/>
<polygon fill="#757575" stroke="#757575" points="2605.79,-608.65 2615.24,-603.87 2604.87,-601.71 2605.79,-608.65"/>
</g>
<!-- components/post/NewPostForm.jsx&#45;&gt;components/common/TextInput.jsx -->
<g id="edge35" class="edge">
<title>components/post/NewPostForm.jsx&#45;&gt;components/common/TextInput.jsx</title>
<path fill="none" stroke="#757575" d="M1607.87,-639.51C1663.3,-617.39 1779.38,-571.07 1841.43,-546.31"/>
<polygon fill="#757575" stroke="#757575" points="1842.6,-549.61 1850.59,-542.66 1840.01,-543.11 1842.6,-549.61"/>
</g>
<!-- components/post/NewPostForm.jsx&#45;&gt;context/AuthContext.jsx -->
<g id="edge36" class="edge">
<title>components/post/NewPostForm.jsx&#45;&gt;context/AuthContext.jsx</title>
<path fill="none" stroke="#757575" d="M1691,-663.88C1833.89,-679.72 2085.86,-710.26 2299.5,-749.88 2326.5,-754.88 2356.13,-761.69 2381.13,-767.82"/>
<polygon fill="#757575" stroke="#757575" points="2380.25,-771.21 2390.8,-770.21 2381.94,-764.41 2380.25,-771.21"/>
</g>
<!-- components/post/PostImage.jsx -->
<g id="node35" class="node">
<title>components/post/PostImage.jsx</title>
<path fill="none" stroke="#cfffac" d="M1376.58,-693.75C1376.58,-693.75 1183.67,-693.75 1183.67,-693.75 1179.71,-693.75 1175.75,-689.79 1175.75,-685.83 1175.75,-685.83 1175.75,-677.92 1175.75,-677.92 1175.75,-673.96 1179.71,-670 1183.67,-670 1183.67,-670 1376.58,-670 1376.58,-670 1380.54,-670 1384.5,-673.96 1384.5,-677.92 1384.5,-677.92 1384.5,-685.83 1384.5,-685.83 1384.5,-689.79 1380.54,-693.75 1376.58,-693.75"/>
<text xml:space="preserve" text-anchor="middle" x="1280.12" y="-676.45" font-family="Arial" font-size="14.00" fill="#cfffac">components/post/PostImage.jsx</text>
</g>
<!-- components/post/PostItem.jsx -->
<g id="node36" class="node">
<title>components/post/PostItem.jsx</title>
<path fill="none" stroke="#c6c5fe" d="M1117.58,-693.75C1117.58,-693.75 935.92,-693.75 935.92,-693.75 931.96,-693.75 928,-689.79 928,-685.83 928,-685.83 928,-677.92 928,-677.92 928,-673.96 931.96,-670 935.92,-670 935.92,-670 1117.58,-670 1117.58,-670 1121.54,-670 1125.5,-673.96 1125.5,-677.92 1125.5,-677.92 1125.5,-685.83 1125.5,-685.83 1125.5,-689.79 1121.54,-693.75 1117.58,-693.75"/>
<text xml:space="preserve" text-anchor="middle" x="1026.75" y="-676.45" font-family="Arial" font-size="14.00" fill="#c6c5fe">components/post/PostItem.jsx</text>
</g>
<!-- components/post/PostItem.jsx&#45;&gt;hooks/useProfile.js -->
<g id="edge42" class="edge">
<title>components/post/PostItem.jsx&#45;&gt;hooks/useProfile.js</title>
<path fill="none" stroke="#757575" d="M1033.77,-669.65C1049.65,-638.9 1096.04,-558.48 1161.5,-525.88 1325.46,-444.22 1892.92,-472.94 2098.64,-486.47"/>
<polygon fill="#757575" stroke="#757575" points="2098.19,-489.95 2108.41,-487.12 2098.66,-482.97 2098.19,-489.95"/>
</g>
<!-- components/post/PostItem.jsx&#45;&gt;components/common/UserRow.jsx -->
<g id="edge37" class="edge">
<title>components/post/PostItem.jsx&#45;&gt;components/common/UserRow.jsx</title>
<path fill="none" stroke="#757575" d="M1027.47,-669.5C1026.8,-610.45 1031.71,-354.37 1161.5,-215.88 1332.93,-32.95 1467.64,-91.96 1717,-117.88 1864.36,-133.19 2034.22,-175.58 2119.31,-198.57"/>
<polygon fill="#757575" stroke="#757575" points="2118.22,-201.9 2128.79,-201.15 2120.06,-195.15 2118.22,-201.9"/>
</g>
<!-- components/post/PostItem.jsx&#45;&gt;components/post/CommentsItem.jsx -->
<g id="edge38" class="edge">
<title>components/post/PostItem.jsx&#45;&gt;components/post/CommentsItem.jsx</title>
<path fill="none" stroke="#757575" d="M1050.5,-669.66C1095.16,-645.67 1194.45,-592.35 1246.25,-564.53"/>
<polygon fill="#757575" stroke="#757575" points="1247.76,-567.69 1254.91,-559.88 1244.44,-561.53 1247.76,-567.69"/>
</g>
<!-- components/post/PostItem.jsx&#45;&gt;components/post/PostImage.jsx -->
<g id="edge39" class="edge">
<title>components/post/PostItem.jsx&#45;&gt;components/post/PostImage.jsx</title>
<path fill="none" stroke="#757575" d="M1125.66,-681.88C1138.24,-681.88 1151.21,-681.88 1164.04,-681.88"/>
<polygon fill="#757575" stroke="#757575" points="1163.74,-685.38 1173.74,-681.88 1163.74,-678.38 1163.74,-685.38"/>
</g>
<!-- components/post/buttons/PostActionRow.jsx -->
<g id="node37" class="node">
<title>components/post/buttons/PostActionRow.jsx</title>
<path fill="none" stroke="#c6c5fe" d="M1709.08,-734.75C1709.08,-734.75 1442.67,-734.75 1442.67,-734.75 1438.71,-734.75 1434.75,-730.79 1434.75,-726.83 1434.75,-726.83 1434.75,-718.92 1434.75,-718.92 1434.75,-714.96 1438.71,-711 1442.67,-711 1442.67,-711 1709.08,-711 1709.08,-711 1713.04,-711 1717,-714.96 1717,-718.92 1717,-718.92 1717,-726.83 1717,-726.83 1717,-730.79 1713.04,-734.75 1709.08,-734.75"/>
<text xml:space="preserve" text-anchor="middle" x="1575.88" y="-717.45" font-family="Arial" font-size="14.00" fill="#c6c5fe">components/post/buttons/PostActionRow.jsx</text>
</g>
<!-- components/post/PostItem.jsx&#45;&gt;components/post/buttons/PostActionRow.jsx -->
<g id="edge40" class="edge">
<title>components/post/PostItem.jsx&#45;&gt;components/post/buttons/PostActionRow.jsx</title>
<path fill="none" stroke="#757575" d="M1096.98,-694.2C1117.68,-697.48 1140.46,-700.72 1161.5,-702.88 1247.85,-711.72 1344.76,-716.67 1423.03,-719.43"/>
<polygon fill="#757575" stroke="#757575" points="1422.81,-722.93 1432.93,-719.77 1423.05,-715.93 1422.81,-722.93"/>
</g>
<!-- hooks/useComments.js -->
<g id="node38" class="node">
<title>hooks/useComments.js</title>
<path fill="none" stroke="#cfffac" d="M1351.08,-773.75C1351.08,-773.75 1209.17,-773.75 1209.17,-773.75 1205.21,-773.75 1201.25,-769.79 1201.25,-765.83 1201.25,-765.83 1201.25,-757.92 1201.25,-757.92 1201.25,-753.96 1205.21,-750 1209.17,-750 1209.17,-750 1351.08,-750 1351.08,-750 1355.04,-750 1359,-753.96 1359,-757.92 1359,-757.92 1359,-765.83 1359,-765.83 1359,-769.79 1355.04,-773.75 1351.08,-773.75"/>
<text xml:space="preserve" text-anchor="middle" x="1280.12" y="-756.45" font-family="Arial" font-size="14.00" fill="#cfffac">hooks/useComments.js</text>
</g>
<!-- components/post/PostItem.jsx&#45;&gt;hooks/useComments.js -->
<g id="edge41" class="edge">
<title>components/post/PostItem.jsx&#45;&gt;hooks/useComments.js</title>
<path fill="none" stroke="#757575" d="M1054.43,-694.18C1081.09,-706.11 1123.47,-724.08 1161.5,-735.88 1174.82,-740 1189.18,-743.75 1203.13,-747.02"/>
<polygon fill="#757575" stroke="#757575" points="1202.21,-750.4 1212.74,-749.21 1203.77,-743.58 1202.21,-750.4"/>
</g>
<!-- components/post/buttons/PostActionRow.jsx&#45;&gt;components/common/ActionButton.jsx -->
<g id="edge45" class="edge">
<title>components/post/buttons/PostActionRow.jsx&#45;&gt;components/common/ActionButton.jsx</title>
<path fill="none" stroke="#757575" d="M1684.97,-710.51C1775.34,-697.75 1906.38,-673.55 2014.25,-630.88 2065.4,-610.64 2118.86,-574.63 2149.1,-552.63"/>
<polygon fill="#757575" stroke="#757575" points="2150.88,-555.67 2156.85,-546.92 2146.72,-550.04 2150.88,-555.67"/>
</g>
<!-- components/post/buttons/PostActionRow.jsx&#45;&gt;components/common/RemoveButton.jsx -->
<g id="edge46" class="edge">
<title>components/post/buttons/PostActionRow.jsx&#45;&gt;components/common/RemoveButton.jsx</title>
<path fill="none" stroke="#757575" d="M1612.08,-710.54C1640.46,-700.54 1681.37,-686.01 1717,-672.88 1759.2,-657.32 1807.21,-638.99 1840.63,-626.12"/>
<polygon fill="#757575" stroke="#757575" points="1841.46,-629.55 1849.53,-622.69 1838.94,-623.02 1841.46,-629.55"/>
</g>
<!-- hooks/useToggleLike.js -->
<g id="node40" class="node">
<title>hooks/useToggleLike.js</title>
<path fill="none" stroke="#c6c5fe" d="M2244.71,-1009.75C2244.71,-1009.75 2105.04,-1009.75 2105.04,-1009.75 2101.08,-1009.75 2097.12,-1005.79 2097.12,-1001.83 2097.12,-1001.83 2097.12,-993.92 2097.12,-993.92 2097.12,-989.96 2101.08,-986 2105.04,-986 2105.04,-986 2244.71,-986 2244.71,-986 2248.67,-986 2252.62,-989.96 2252.62,-993.92 2252.62,-993.92 2252.62,-1001.83 2252.62,-1001.83 2252.62,-1005.79 2248.67,-1009.75 2244.71,-1009.75"/>
<text xml:space="preserve" text-anchor="middle" x="2174.88" y="-992.45" font-family="Arial" font-size="14.00" fill="#c6c5fe">hooks/useToggleLike.js</text>
</g>
<!-- components/post/buttons/PostActionRow.jsx&#45;&gt;hooks/useToggleLike.js -->
<g id="edge47" class="edge">
<title>components/post/buttons/PostActionRow.jsx&#45;&gt;hooks/useToggleLike.js</title>
<path fill="none" stroke="#757575" d="M1603.69,-735.23C1699.64,-779.43 2026.11,-929.81 2136.81,-980.8"/>
<polygon fill="#757575" stroke="#757575" points="2135.22,-983.92 2145.76,-984.93 2138.14,-977.56 2135.22,-983.92"/>
</g>
<!-- components/post/PostList.jsx&#45;&gt;api/useInfiniteApiQuery.jsx -->
<g id="edge43" class="edge">
<title>components/post/PostList.jsx&#45;&gt;api/useInfiniteApiQuery.jsx</title>
<path fill="none" stroke="#757575" d="M776.51,-669.66C830.5,-617.23 1054.4,-413.88 1279.12,-413.88 1279.12,-413.88 1279.12,-413.88 1576.88,-413.88 1723.17,-413.88 2147.41,-442.34 2340.93,-455.88"/>
<polygon fill="#757575" stroke="#757575" points="2340.49,-459.36 2350.71,-456.56 2340.98,-452.37 2340.49,-459.36"/>
</g>
<!-- components/post/PostList.jsx&#45;&gt;components/post/PostItem.jsx -->
<g id="edge44" class="edge">
<title>components/post/PostList.jsx&#45;&gt;components/post/PostItem.jsx</title>
<path fill="none" stroke="#757575" d="M859.4,-681.88C877.87,-681.88 897.36,-681.88 916.25,-681.88"/>
<polygon fill="#757575" stroke="#757575" points="916.08,-685.38 926.08,-681.88 916.08,-678.38 916.08,-685.38"/>
</g>
<!-- hooks/useToggleLike.js&#45;&gt;api/apiHelper.jsx -->
<g id="edge64" class="edge">
<title>hooks/useToggleLike.js&#45;&gt;api/apiHelper.jsx</title>
<path fill="none" stroke="#757575" d="M2252.83,-986.58C2268.62,-982.92 2284.88,-978.12 2299.5,-971.88 2552.65,-863.74 2799.83,-628.6 2870.49,-558.19"/>
<polygon fill="#757575" stroke="#757575" points="2872.92,-560.71 2877.5,-551.16 2867.97,-555.77 2872.92,-560.71"/>
</g>
<!-- hooks/useToggleLike.js&#45;&gt;context/AuthContext.jsx -->
<g id="edge65" class="edge">
<title>hooks/useToggleLike.js&#45;&gt;context/AuthContext.jsx</title>
<path fill="none" stroke="#757575" d="M2253.12,-992.22C2269.58,-988.24 2286.04,-981.89 2299.5,-971.88 2326.31,-951.94 2316.63,-933.45 2335.5,-905.88 2361.8,-867.44 2397.84,-826.9 2419.78,-803.3"/>
<polygon fill="#757575" stroke="#757575" points="2422.13,-805.92 2426.42,-796.23 2417.03,-801.13 2422.13,-805.92"/>
</g>
<!-- components/user/ProfileStats.jsx -->
<g id="node41" class="node">
<title>components/user/ProfileStats.jsx</title>
<path fill="none" stroke="#cfffac" d="M2273.58,-65.75C2273.58,-65.75 2076.17,-65.75 2076.17,-65.75 2072.21,-65.75 2068.25,-61.79 2068.25,-57.83 2068.25,-57.83 2068.25,-49.92 2068.25,-49.92 2068.25,-45.96 2072.21,-42 2076.17,-42 2076.17,-42 2273.58,-42 2273.58,-42 2277.54,-42 2281.5,-45.96 2281.5,-49.92 2281.5,-49.92 2281.5,-57.83 2281.5,-57.83 2281.5,-61.79 2277.54,-65.75 2273.58,-65.75"/>
<text xml:space="preserve" text-anchor="middle" x="2174.88" y="-48.45" font-family="Arial" font-size="14.00" fill="#cfffac">components/user/ProfileStats.jsx</text>
</g>
<!-- components/user/UserFollowedBy.jsx -->
<g id="node42" class="node">
<title>components/user/UserFollowedBy.jsx</title>
<path fill="none" stroke="#c6c5fe" d="M2287.83,-107.75C2287.83,-107.75 2061.92,-107.75 2061.92,-107.75 2057.96,-107.75 2054,-103.79 2054,-99.83 2054,-99.83 2054,-91.92 2054,-91.92 2054,-87.96 2057.96,-84 2061.92,-84 2061.92,-84 2287.83,-84 2287.83,-84 2291.79,-84 2295.75,-87.96 2295.75,-91.92 2295.75,-91.92 2295.75,-99.83 2295.75,-99.83 2295.75,-103.79 2291.79,-107.75 2287.83,-107.75"/>
<text xml:space="preserve" text-anchor="middle" x="2174.88" y="-90.45" font-family="Arial" font-size="14.00" fill="#c6c5fe">components/user/UserFollowedBy.jsx</text>
</g>
<!-- components/user/UserFollowedBy.jsx&#45;&gt;components/common/Avatar.jsx -->
<g id="edge48" class="edge">
<title>components/user/UserFollowedBy.jsx&#45;&gt;components/common/Avatar.jsx</title>
<path fill="none" stroke="#757575" d="M2257.05,-108.2C2285.46,-112.52 2317.57,-117.39 2346.83,-121.84"/>
<polygon fill="#757575" stroke="#757575" points="2345.99,-125.25 2356.4,-123.29 2347.04,-118.33 2345.99,-125.25"/>
</g>
<!-- components/user/UserProfileSidebar.jsx&#45;&gt;api/useApiQuery.js -->
<g id="edge50" class="edge">
<title>components/user/UserProfileSidebar.jsx&#45;&gt;api/useApiQuery.js</title>
<path fill="none" stroke="#757575" d="M1957.5,-89.19C1976.15,-92.97 1996.07,-97.56 2014.25,-102.88 2030.73,-107.69 2034.03,-111.26 2050.25,-116.88 2159.68,-154.78 2206.13,-124.36 2299.5,-192.88 2365.94,-241.63 2411.31,-331.96 2429.86,-374.11"/>
<polygon fill="#757575" stroke="#757575" points="2426.62,-375.44 2433.78,-383.26 2433.06,-372.69 2426.62,-375.44"/>
</g>
<!-- components/user/UserProfileSidebar.jsx&#45;&gt;components/common/ActionButton.jsx -->
<g id="edge51" class="edge">
<title>components/user/UserProfileSidebar.jsx&#45;&gt;components/common/ActionButton.jsx</title>
<path fill="none" stroke="#757575" d="M1907.29,-89.13C1937.45,-106.78 1989.8,-142.42 2014.25,-188.88 2047.99,-252.98 2000.52,-460.2 2050.25,-512.88 2050.74,-513.39 2051.24,-513.9 2051.74,-514.4"/>
<polygon fill="#757575" stroke="#757575" points="2049.44,-517.04 2059.38,-520.72 2053.9,-511.65 2049.44,-517.04"/>
</g>
<!-- components/user/UserProfileSidebar.jsx&#45;&gt;hooks/useProfile.js -->
<g id="edge55" class="edge">
<title>components/user/UserProfileSidebar.jsx&#45;&gt;hooks/useProfile.js</title>
<path fill="none" stroke="#757575" d="M1906.8,-89.11C1936.64,-106.86 1988.9,-142.74 2014.25,-188.88 2067.03,-284.95 1985.14,-344.69 2050.25,-432.88 2065.19,-453.11 2088.88,-466.69 2111.55,-475.67"/>
<polygon fill="#757575" stroke="#757575" points="2110.18,-478.9 2120.78,-479.07 2112.61,-472.33 2110.18,-478.9"/>
</g>
<!-- components/user/UserProfileSidebar.jsx&#45;&gt;components/common/UserBadge.jsx -->
<g id="edge52" class="edge">
<title>components/user/UserProfileSidebar.jsx&#45;&gt;components/common/UserBadge.jsx</title>
<path fill="none" stroke="#757575" d="M1926.57,-64.59C1959.9,-55.11 2007.8,-42.1 2050.25,-32.88 2060.94,-30.55 2072.2,-28.33 2083.39,-26.26"/>
<polygon fill="#757575" stroke="#757575" points="2083.82,-29.74 2093.04,-24.52 2082.58,-22.85 2083.82,-29.74"/>
</g>
<!-- components/user/UserProfileSidebar.jsx&#45;&gt;components/user/ProfileStats.jsx -->
<g id="edge53" class="edge">
<title>components/user/UserProfileSidebar.jsx&#45;&gt;components/user/ProfileStats.jsx</title>
<path fill="none" stroke="#757575" d="M2012.34,-66.72C2027.17,-65.54 2042.24,-64.34 2056.92,-63.17"/>
<polygon fill="#757575" stroke="#757575" points="2056.86,-66.69 2066.55,-62.41 2056.31,-59.71 2056.86,-66.69"/>
</g>
<!-- components/user/UserProfileSidebar.jsx&#45;&gt;components/user/UserFollowedBy.jsx -->
<g id="edge54" class="edge">
<title>components/user/UserProfileSidebar.jsx&#45;&gt;components/user/UserFollowedBy.jsx</title>
<path fill="none" stroke="#757575" d="M2012.34,-85.26C2022.34,-85.92 2032.46,-86.59 2042.49,-87.24"/>
<polygon fill="#757575" stroke="#757575" points="2042.05,-90.72 2052.26,-87.89 2042.51,-83.74 2042.05,-90.72"/>
</g>
<!-- components/user/UserSuggestions.jsx&#45;&gt;components/common/FollowButton.jsx -->
<g id="edge56" class="edge">
<title>components/user/UserSuggestions.jsx&#45;&gt;components/common/FollowButton.jsx</title>
<path fill="none" stroke="#757575" d="M1970.75,-319.51C1985.56,-316.01 2000.57,-311.54 2014.25,-305.88 2032.01,-298.51 2032.52,-289.32 2050.25,-281.88 2060.34,-277.64 2071.18,-274.07 2082.11,-271.06"/>
<polygon fill="#757575" stroke="#757575" points="2082.77,-274.5 2091.58,-268.62 2081.02,-267.73 2082.77,-274.5"/>
</g>
<!-- components/user/UserSuggestions.jsx&#45;&gt;components/common/UserRow.jsx -->
<g id="edge57" class="edge">
<title>components/user/UserSuggestions.jsx&#45;&gt;components/common/UserRow.jsx</title>
<path fill="none" stroke="#757575" d="M1989.81,-319.58C1998.54,-315.99 2006.85,-311.5 2014.25,-305.88 2042.42,-284.47 2021.76,-255.86 2050.25,-234.88 2051.82,-233.72 2053.42,-232.62 2055.07,-231.58"/>
<polygon fill="#757575" stroke="#757575" points="2056.49,-234.79 2063.53,-226.87 2053.09,-228.67 2056.49,-234.79"/>
</g>
<!-- hooks/useUsers.js -->
<g id="node45" class="node">
<title>hooks/useUsers.js</title>
<path fill="none" stroke="#c6c5fe" d="M2263.46,-423.75C2263.46,-423.75 2086.29,-423.75 2086.29,-423.75 2082.33,-423.75 2078.38,-419.79 2078.38,-415.83 2078.38,-415.83 2078.38,-407.92 2078.38,-407.92 2078.38,-403.96 2082.33,-400 2086.29,-400 2086.29,-400 2263.46,-400 2263.46,-400 2267.42,-400 2271.38,-403.96 2271.38,-407.92 2271.38,-407.92 2271.38,-415.83 2271.38,-415.83 2271.38,-419.79 2267.42,-423.75 2263.46,-423.75"/>
<text xml:space="preserve" text-anchor="middle" x="2174.88" y="-406.45" font-family="Arial" font-size="14.00" fill="#c6c5fe">hooks/useUsers.js</text>
</g>
<!-- components/user/UserSuggestions.jsx&#45;&gt;hooks/useUsers.js -->
<g id="edge58" class="edge">
<title>components/user/UserSuggestions.jsx&#45;&gt;hooks/useUsers.js</title>
<path fill="none" stroke="#757575" d="M1975.05,-344.22C1988.29,-346.69 2001.68,-349.57 2014.25,-352.88 2056.61,-364.02 2103.43,-382.04 2135.35,-395.24"/>
<polygon fill="#757575" stroke="#757575" points="2133.6,-398.3 2144.18,-398.93 2136.3,-391.84 2133.6,-398.3"/>
</g>
<!-- hooks/useUsers.js&#45;&gt;api/useApiQuery.js -->
<g id="edge66" class="edge">
<title>hooks/useUsers.js&#45;&gt;api/useApiQuery.js</title>
<path fill="none" stroke="#757575" d="M2271.7,-406.42C2302.09,-404.69 2335.23,-402.8 2363.96,-401.16"/>
<polygon fill="#757575" stroke="#757575" points="2363.85,-404.68 2373.63,-400.61 2363.45,-397.69 2363.85,-404.68"/>
</g>
<!-- hooks/useUsers.js&#45;&gt;context/AuthContext.jsx -->
<g id="edge67" class="edge">
<title>hooks/useUsers.js&#45;&gt;context/AuthContext.jsx</title>
<path fill="none" stroke="#757575" d="M2219.36,-424.18C2245.39,-433.43 2277.57,-448.41 2299.5,-470.88 2310.55,-482.19 2400.07,-690.93 2429.74,-760.51"/>
<polygon fill="#757575" stroke="#757575" points="2426.38,-761.56 2433.52,-769.39 2432.82,-758.82 2426.38,-761.56"/>
</g>
<!-- hooks/useAuth.js -->
<g id="node46" class="node">
<title>hooks/useAuth.js</title>
<path fill="none" stroke="#c6c5fe" d="M2226.33,-891.75C2226.33,-891.75 2123.42,-891.75 2123.42,-891.75 2119.46,-891.75 2115.5,-887.79 2115.5,-883.83 2115.5,-883.83 2115.5,-875.92 2115.5,-875.92 2115.5,-871.96 2119.46,-868 2123.42,-868 2123.42,-868 2226.33,-868 2226.33,-868 2230.29,-868 2234.25,-871.96 2234.25,-875.92 2234.25,-875.92 2234.25,-883.83 2234.25,-883.83 2234.25,-887.79 2230.29,-891.75 2226.33,-891.75"/>
<text xml:space="preserve" text-anchor="middle" x="2174.88" y="-874.45" font-family="Arial" font-size="14.00" fill="#c6c5fe">hooks/useAuth.js</text>
</g>
<!-- hooks/useAuth.js&#45;&gt;context/AuthContext.jsx -->
<g id="edge60" class="edge">
<title>hooks/useAuth.js&#45;&gt;context/AuthContext.jsx</title>
<path fill="none" stroke="#757575" d="M2234.6,-870.8C2255.42,-866.72 2278.81,-861.16 2299.5,-853.88 2339.1,-839.92 2381.73,-817 2409.35,-800.99"/>
<polygon fill="#757575" stroke="#757575" points="2411.01,-804.07 2417.86,-795.99 2407.47,-798.03 2411.01,-804.07"/>
</g>
<!-- main.jsx -->
<g id="node47" class="node">
<title>main.jsx</title>
<path fill="none" stroke="#c6c5fe" d="M149.83,-753.75C149.83,-753.75 99.42,-753.75 99.42,-753.75 95.46,-753.75 91.5,-749.79 91.5,-745.83 91.5,-745.83 91.5,-737.92 91.5,-737.92 91.5,-733.96 95.46,-730 99.42,-730 99.42,-730 149.83,-730 149.83,-730 153.79,-730 157.75,-733.96 157.75,-737.92 157.75,-737.92 157.75,-745.83 157.75,-745.83 157.75,-749.79 153.79,-753.75 149.83,-753.75"/>
<text xml:space="preserve" text-anchor="middle" x="124.62" y="-736.45" font-family="Arial" font-size="14.00" fill="#c6c5fe">main.jsx</text>
</g>
<!-- main.jsx&#45;&gt;App.jsx -->
<g id="edge68" class="edge">
<title>main.jsx&#45;&gt;App.jsx</title>
<path fill="none" stroke="#757575" d="M158.11,-741.88C195.76,-741.88 257.86,-741.88 298.72,-741.88"/>
<polygon fill="#757575" stroke="#757575" points="298.64,-745.38 308.64,-741.88 298.64,-738.38 298.64,-745.38"/>
</g>
<!-- main.jsx&#45;&gt;context/AuthContext.jsx -->
<g id="edge69" class="edge">
<title>main.jsx&#45;&gt;context/AuthContext.jsx</title>
<path fill="none" stroke="#757575" d="M158.02,-743.27C183.65,-745.34 219.89,-750.41 249.25,-762.88 383.81,-819.99 367.94,-957.88 514.12,-957.88 514.12,-957.88 514.12,-957.88 1884.62,-957.88 1977.04,-957.88 2225.33,-984.01 2299.5,-928.88 2335.74,-901.94 2305.12,-867.28 2335.5,-833.88 2349.33,-818.67 2368.7,-807.47 2386.96,-799.5"/>
<polygon fill="#757575" stroke="#757575" points="2388.2,-802.78 2396.13,-795.75 2385.55,-796.3 2388.2,-802.78"/>
</g>
<!-- styles/index.css -->
<g id="node48" class="node">
<title>styles/index.css</title>
<path fill="none" stroke="#cfffac" d="M387.83,-711.75C387.83,-711.75 293.17,-711.75 293.17,-711.75 289.21,-711.75 285.25,-707.79 285.25,-703.83 285.25,-703.83 285.25,-695.92 285.25,-695.92 285.25,-691.96 289.21,-688 293.17,-688 293.17,-688 387.83,-688 387.83,-688 391.79,-688 395.75,-691.96 395.75,-695.92 395.75,-695.92 395.75,-703.83 395.75,-703.83 395.75,-707.79 391.79,-711.75 387.83,-711.75"/>
<text xml:space="preserve" text-anchor="middle" x="340.5" y="-694.45" font-family="Arial" font-size="14.00" fill="#cfffac">styles/index.css</text>
</g>
<!-- main.jsx&#45;&gt;styles/index.css -->
<g id="edge70" class="edge">
<title>main.jsx&#45;&gt;styles/index.css</title>
<path fill="none" stroke="#757575" d="M158.11,-735.5C188.74,-729.48 235.55,-720.29 273.95,-712.75"/>
<polygon fill="#757575" stroke="#757575" points="274.42,-716.22 283.56,-710.86 273.07,-709.35 274.42,-716.22"/>
</g>
</g>
</svg>
